<?xml version="1.0" encoding="UTF-8"?>
<svg xmlns="http://www.w3.org/2000/svg" width="900" height="200" viewBox="0 0 900 200" role="img" aria-labelledby="title desc">
  <title id="title">EquiPulse AI site logo</title>
  <desc id="desc">Offline-First AI Commerce Dashboard for Bangladesh by EquiSaaS BD.</desc>
  <defs>
    <linearGradient id="textGrad" x1="0" y1="0" x2="1" y2="0">
      <stop offset="0%" stop-color="#064e3b" />
      <stop offset="100%" stop-color="#020617" />
    </linearGradient>
  </defs>
  
  <rect width="900" height="200" rx="36" fill="#ffffff" stroke="#e2e8f0" stroke-width="2"/>
  <g transform="translate(34 24) scale(.296875)">
    <defs>
    <!-- Deep Premium Dark Green/Slate Gradient -->
    <linearGradient id="markBg" x1="0" x2="512" y1="0" y2="512">
      <stop offset="0%" stop-color="#022c22"/> <!-- Deep Emerald -->
      <stop offset="50%" stop-color="#064e3b"/> <!-- Sundarban Green -->
      <stop offset="100%" stop-color="#020617"/> <!-- Deep Slate -->
    </linearGradient>
    
    <!-- Terracotta & Gold Pulse Gradient -->
    <linearGradient id="markPulse" x1="50" x2="450" y1="350" y2="150">
      <stop offset="0%" stop-color="#fb923c"/> <!-- Soft Orange -->
      <stop offset="40%" stop-color="#dc2626"/> <!-- Terracotta Red -->
      <stop offset="70%" stop-color="#fbbf24"/> <!-- Golden Fibre -->
      <stop offset="100%" stop-color="#10b981"/> <!-- Emerald -->
    </linearGradient>

    <!-- Cultural Geometric Nokshi Overlay -->
    <pattern id="nokshi" x="0" y="0" width="60" height="60" patternUnits="userSpaceOnUse">
      <path d="M30 0 L60 30 L30 60 L0 30 Z" fill="none" stroke="#ffffff" stroke-width="1.5" stroke-opacity="0.05"/>
      <circle cx="30" cy="30" r="10" fill="none" stroke="#ffffff" stroke-width="1" stroke-opacity="0.03"/>
    </pattern>

    <filter id="glow" x="-20%" y="-20%" width="140%" height="140%">
      <feDropShadow dx="0" dy="8" stdDeviation="16" flood-color="#dc2626" flood-opacity="0.5"/>
    </filter>
  </defs>

  <!-- Base Plate -->
  <rect width="512" height="512" rx="120" fill="url(#markBg)"/>
  
  <!-- Subtle Cultural Overlay -->
  <rect width="512" height="512" rx="120" fill="url(#nokshi)"/>
  
  <!-- Abstract Pulse Geometry (Leaf + Pulse) -->
  <g transform="translate(48, 48)">
    <path d="M416 100 C300 -50, 100 0, 50 200 C0 400, 200 450, 416 416 C500 380, 500 150, 416 100 Z" fill="#10b981" opacity="0.1" filter="blur(20px)"/>
    <path d="M64 256 L150 256 L208 128 L272 384 L330 200 L380 256 L448 256" fill="none" stroke="url(#markPulse)" stroke-width="42" stroke-linecap="round" stroke-linejoin="round" filter="url(#glow)"/>
    
    <!-- Pulse Nodes (Data points) -->
    <circle cx="208" cy="128" r="30" fill="#f8fafc" opacity="0.9"/>
    <circle cx="272" cy="384" r="30" fill="#f8fafc" opacity="0.9"/>
    <circle cx="330" cy="200" r="26" fill="#f8fafc" opacity="0.9"/>
  </g>

  </g>
  <text x="214" y="90" fill="url(#textGrad)" font-family="Arial, Helvetica, sans-serif" font-size="64" font-weight="900" letter-spacing="-1">EquiPulse AI</text>
  <text x="216" y="134" fill="#dc2626" font-family="Arial, Helvetica, sans-serif" font-size="24" font-weight="800" letter-spacing="1">BY EQUISAAS BD</text>
  <text x="216" y="168" fill="#64748b" font-family="Arial, Helvetica, sans-serif" font-size="21" font-weight="600">Offline-First AI Commerce Dashboard for Bangladesh</text>
</svg>